<mxfile host="app.diagrams.net" modified="2021-01-14T16:24:28.298Z" agent="5.0 (Macintosh; Intel Mac OS X 10_15_7) AppleWebKit/605.1.15 (KHTML, like Gecko) Version/14.0.2 Safari/605.1.15" etag="nlhOU-YH3bv41Rvd5ZLn" version="14.1.8" type="github">
  <diagram id="sVRX5vZddoamwkL4EYBd" name="Page-1">
    <mxGraphModel dx="1186" dy="812" grid="1" gridSize="10" guides="1" tooltips="1" connect="1" arrows="1" fold="1" page="1" pageScale="1" pageWidth="850" pageHeight="1100" math="0" shadow="0">
      <root>
        <mxCell id="0" />
        <mxCell id="1" parent="0" />
        <mxCell id="0jaRX8jj3YaVgyMKhdjn-1" value="" style="edgeStyle=orthogonalEdgeStyle;rounded=0;orthogonalLoop=1;jettySize=auto;html=1;exitX=0.5;exitY=0;exitDx=0;exitDy=0;entryX=0.5;entryY=1;entryDx=0;entryDy=0;" edge="1" parent="1" source="0jaRX8jj3YaVgyMKhdjn-6" target="0jaRX8jj3YaVgyMKhdjn-2">
          <mxGeometry relative="1" as="geometry" />
        </mxCell>
        <mxCell id="0jaRX8jj3YaVgyMKhdjn-2" value="REST" style="rounded=0;whiteSpace=wrap;html=1;" vertex="1" parent="1">
          <mxGeometry x="320" y="480" width="80" height="60" as="geometry" />
        </mxCell>
        <mxCell id="0jaRX8jj3YaVgyMKhdjn-3" value="DIMSE" style="rounded=0;whiteSpace=wrap;html=1;" vertex="1" parent="1">
          <mxGeometry x="480" y="480" width="80" height="60" as="geometry" />
        </mxCell>
        <mxCell id="0jaRX8jj3YaVgyMKhdjn-4" value="" style="edgeStyle=orthogonalEdgeStyle;rounded=0;orthogonalLoop=1;jettySize=auto;html=1;entryX=0.5;entryY=1;entryDx=0;entryDy=0;" edge="1" parent="1" source="0jaRX8jj3YaVgyMKhdjn-6" target="0jaRX8jj3YaVgyMKhdjn-3">
          <mxGeometry relative="1" as="geometry" />
        </mxCell>
        <mxCell id="0jaRX8jj3YaVgyMKhdjn-5" value="" style="edgeStyle=orthogonalEdgeStyle;rounded=0;orthogonalLoop=1;jettySize=auto;html=1;dashed=1;" edge="1" parent="1" source="0jaRX8jj3YaVgyMKhdjn-6" target="0jaRX8jj3YaVgyMKhdjn-16">
          <mxGeometry relative="1" as="geometry" />
        </mxCell>
        <mxCell id="0jaRX8jj3YaVgyMKhdjn-6" value="Interface Validation&lt;br&gt;(AO)" style="rounded=0;whiteSpace=wrap;html=1;" vertex="1" parent="1">
          <mxGeometry x="400" y="600" width="80" height="60" as="geometry" />
        </mxCell>
        <mxCell id="0jaRX8jj3YaVgyMKhdjn-7" value="" style="edgeStyle=orthogonalEdgeStyle;rounded=0;orthogonalLoop=1;jettySize=auto;html=1;" edge="1" parent="1" source="0jaRX8jj3YaVgyMKhdjn-8" target="0jaRX8jj3YaVgyMKhdjn-13">
          <mxGeometry relative="1" as="geometry" />
        </mxCell>
        <mxCell id="0jaRX8jj3YaVgyMKhdjn-8" value="SFTP" style="rounded=0;whiteSpace=wrap;html=1;" vertex="1" parent="1">
          <mxGeometry x="40" y="600" width="80" height="60" as="geometry" />
        </mxCell>
        <mxCell id="0jaRX8jj3YaVgyMKhdjn-9" value="MSI&lt;br&gt;VM" style="shape=note;whiteSpace=wrap;html=1;backgroundOutline=1;darkOpacity=0.05;size=13;" vertex="1" parent="1">
          <mxGeometry x="600" y="440" width="80" height="100" as="geometry" />
        </mxCell>
        <mxCell id="0jaRX8jj3YaVgyMKhdjn-10" value="Docker" style="shape=note;whiteSpace=wrap;html=1;backgroundOutline=1;darkOpacity=0.05;size=13;" vertex="1" parent="1">
          <mxGeometry x="200" y="440" width="80" height="100" as="geometry" />
        </mxCell>
        <mxCell id="0jaRX8jj3YaVgyMKhdjn-11" value="" style="edgeStyle=orthogonalEdgeStyle;rounded=0;orthogonalLoop=1;jettySize=auto;html=1;" edge="1" parent="1" target="0jaRX8jj3YaVgyMKhdjn-6">
          <mxGeometry relative="1" as="geometry">
            <mxPoint x="360" y="630" as="sourcePoint" />
          </mxGeometry>
        </mxCell>
        <mxCell id="0jaRX8jj3YaVgyMKhdjn-12" value="" style="edgeStyle=orthogonalEdgeStyle;rounded=0;orthogonalLoop=1;jettySize=auto;html=1;" edge="1" parent="1" source="0jaRX8jj3YaVgyMKhdjn-13" target="0jaRX8jj3YaVgyMKhdjn-14">
          <mxGeometry relative="1" as="geometry" />
        </mxCell>
        <mxCell id="0jaRX8jj3YaVgyMKhdjn-13" value="SECUTITY&lt;br&gt;CHECKS" style="rounded=0;whiteSpace=wrap;html=1;" vertex="1" parent="1">
          <mxGeometry x="160" y="600" width="80" height="60" as="geometry" />
        </mxCell>
        <mxCell id="0jaRX8jj3YaVgyMKhdjn-14" value="DEPLOY" style="rounded=0;whiteSpace=wrap;html=1;" vertex="1" parent="1">
          <mxGeometry x="280" y="600" width="80" height="60" as="geometry" />
        </mxCell>
        <mxCell id="0jaRX8jj3YaVgyMKhdjn-15" value="" style="edgeStyle=orthogonalEdgeStyle;rounded=0;orthogonalLoop=1;jettySize=auto;html=1;dashed=1;" edge="1" parent="1" source="0jaRX8jj3YaVgyMKhdjn-16" target="0jaRX8jj3YaVgyMKhdjn-17">
          <mxGeometry relative="1" as="geometry" />
        </mxCell>
        <mxCell id="0jaRX8jj3YaVgyMKhdjn-16" value="WORKFLOW" style="rounded=0;whiteSpace=wrap;html=1;" vertex="1" parent="1">
          <mxGeometry x="600" y="600" width="80" height="60" as="geometry" />
        </mxCell>
        <mxCell id="0jaRX8jj3YaVgyMKhdjn-17" value="VNV" style="rounded=0;whiteSpace=wrap;html=1;" vertex="1" parent="1">
          <mxGeometry x="720" y="600" width="80" height="60" as="geometry" />
        </mxCell>
        <mxCell id="0jaRX8jj3YaVgyMKhdjn-18" value="EMR" style="rounded=0;whiteSpace=wrap;html=1;" vertex="1" parent="1">
          <mxGeometry x="460" y="720" width="80" height="60" as="geometry" />
        </mxCell>
        <mxCell id="0jaRX8jj3YaVgyMKhdjn-19" value="PACS" style="rounded=0;whiteSpace=wrap;html=1;" vertex="1" parent="1">
          <mxGeometry x="340" y="720" width="80" height="60" as="geometry" />
        </mxCell>
        <mxCell id="0jaRX8jj3YaVgyMKhdjn-20" value="VIEWER" style="aspect=fixed;html=1;points=[];align=center;image;fontSize=12;image=img/lib/mscae/Managed_Desktop.svg;" vertex="1" parent="1">
          <mxGeometry x="210" y="720" width="83.33" height="60" as="geometry" />
        </mxCell>
        <mxCell id="0jaRX8jj3YaVgyMKhdjn-21" value="worklist" style="shadow=0;dashed=0;html=1;strokeColor=none;fillColor=#4495D1;labelPosition=center;verticalLabelPosition=bottom;verticalAlign=top;align=center;outlineConnect=0;shape=mxgraph.veeam.tasks;" vertex="1" parent="1">
          <mxGeometry x="120" y="720" width="50" height="60" as="geometry" />
        </mxCell>
        <mxCell id="0jaRX8jj3YaVgyMKhdjn-22" value="Admin personas" style="shape=card;whiteSpace=wrap;html=1;size=20;" vertex="1" parent="1">
          <mxGeometry x="40" y="880" width="80" height="40" as="geometry" />
        </mxCell>
        <mxCell id="0jaRX8jj3YaVgyMKhdjn-23" value="Knack&lt;br&gt;Integration" style="shape=card;whiteSpace=wrap;html=1;size=20;" vertex="1" parent="1">
          <mxGeometry x="40" y="920" width="80" height="40" as="geometry" />
        </mxCell>
        <mxCell id="0jaRX8jj3YaVgyMKhdjn-24" value="UI changes" style="shape=card;whiteSpace=wrap;html=1;size=20;" vertex="1" parent="1">
          <mxGeometry x="40" y="960" width="80" height="40" as="geometry" />
        </mxCell>
        <mxCell id="0jaRX8jj3YaVgyMKhdjn-25" value="DIMSE" style="shape=card;whiteSpace=wrap;html=1;size=20;" vertex="1" parent="1">
          <mxGeometry x="160" y="880" width="80" height="40" as="geometry" />
        </mxCell>
        <mxCell id="0jaRX8jj3YaVgyMKhdjn-26" value="Shell &lt;br&gt;Docker" style="shape=card;whiteSpace=wrap;html=1;size=20;" vertex="1" parent="1">
          <mxGeometry x="280" y="880" width="80" height="40" as="geometry" />
        </mxCell>
        <mxCell id="0jaRX8jj3YaVgyMKhdjn-27" value="Test Framework" style="shape=card;whiteSpace=wrap;html=1;size=20;" vertex="1" parent="1">
          <mxGeometry x="400" y="880" width="80" height="40" as="geometry" />
        </mxCell>
        <mxCell id="0jaRX8jj3YaVgyMKhdjn-28" value="Going &lt;br&gt;Above the line" style="shape=card;whiteSpace=wrap;html=1;size=20;" vertex="1" parent="1">
          <mxGeometry x="640" y="880" width="80" height="40" as="geometry" />
        </mxCell>
        <mxCell id="0jaRX8jj3YaVgyMKhdjn-29" value="DIMSE" style="shape=card;whiteSpace=wrap;html=1;size=20;" vertex="1" parent="1">
          <mxGeometry x="400" y="920" width="80" height="40" as="geometry" />
        </mxCell>
        <mxCell id="0jaRX8jj3YaVgyMKhdjn-30" value="EMR+" style="shape=card;whiteSpace=wrap;html=1;size=20;" vertex="1" parent="1">
          <mxGeometry x="400" y="960" width="80" height="40" as="geometry" />
        </mxCell>
        <mxCell id="0jaRX8jj3YaVgyMKhdjn-31" value="Scale,&lt;br&gt;Performance" style="shape=card;whiteSpace=wrap;html=1;size=20;" vertex="1" parent="1">
          <mxGeometry x="520" y="880" width="80" height="40" as="geometry" />
        </mxCell>
      </root>
    </mxGraphModel>
  </diagram>
</mxfile>
